# xmcd
# 
# Track frame offsets:
#     150
#     18019
#     39660
#     57978
#     77577
#     96464
#     114590
#     126491
#     148198
#     164773
#     177714
#     195068
#     214538
#     236744
#     254106
#     275152
#     285558
# 
# Disc length: 4123
# 
# Revision: 17
# Processed by: cddbd v1.5.2PL0 Copyright (c) Steve Scherf et al.
# Submitted via: fre:ac v1.1beta1pre4
# 
DISCID=08101911
DTITLE=Various Artist - Love Together CD1
DYEAR=2003
DGENRE=Rock
TTITLE0=The Bangles - Eternal Flame
TTITLE1=Richard Sanderson - Reality
TTITLE2=Air Supply - All Out of Love
TTITLE3=All-4-One - I Swear
TTITLE4=Stephen Bishop - It Might Be You
TTITLE5=Randy Vanwarmer - Just When I Needed You Most
TTITLE6=England Dan and John Ford Coley - I'd Really Love To See You Tonight
TTITLE7=Roberta Flack - Killing Me Softly With His Song
TTITLE8=Anne Murray - You Needed Me
TTITLE9=George Benson and Roberta Flack - You Are The Love Of My Life
TTITLE10=Mary MacGregor - Torn Between Two Lovers
TTITLE11=Lobo - How Can I Tell Her
TTITLE12=REO Speedwagon - Can't Fight This Feeling
TTITLE13=Kenny Loggins - Rainbow Connection
TTITLE14=Bette Midler - From A Distance
TTITLE15=Timothy B. Schmit - So Much In Love
TTITLE16=Dan Fogelberg - Same Old Lang Syne
EXTD=
EXTT0=
EXTT1=
EXTT2=
EXTT3=
EXTT4=
EXTT5=
EXTT6=
EXTT7=
EXTT8=
EXTT9=
EXTT10=
EXTT11=
EXTT12=
EXTT13=
EXTT14=
EXTT15=
EXTT16=
PLAYORDER=
